<svg width="137" height="13" fill="none" xmlns="http://www.w3.org/2000/svg"><path d="M4.352 12.096c-.715 0-1.355-.144-1.92-.432A3.406 3.406 0 011.088 10.4c-.32-.544-.48-1.2-.48-1.968 0-.725.117-1.392.352-2a4.962 4.962 0 011.008-1.584c.437-.448.95-.795 1.536-1.04a4.885 4.885 0 011.904-.368c.736 0 1.36.128 1.872.384s.907.635 1.184 1.136c.277.49.416 1.093.416 1.808 0 1.045-.181 1.973-.544 2.784-.363.8-.885 1.424-1.568 1.872-.672.448-1.477.672-2.416.672zm.336-1.344c.64 0 1.21-.155 1.712-.464.501-.31.89-.73 1.168-1.264C7.856 8.48 8 7.861 8 7.168c0-.747-.219-1.328-.656-1.744-.437-.427-1.061-.64-1.872-.64-.63 0-1.195.155-1.696.464-.501.299-.896.72-1.184 1.264-.288.533-.432 1.152-.432 1.856 0 .736.219 1.317.656 1.744.437.427 1.061.64 1.872.64zM7.136 12l.448-2.192.512-1.968.208-2.016.448-2.304h1.536L8.608 12H7.136zm9.811-3.536l5.584-5.072.8.944-5.6 5.072-.784-.944zm.512-4.192l.928-.88 4.416 5.136-.928.88-4.416-5.136zM29.436 12L31.805.128h1.535l-1.136 5.616-.56 1.936-.24 1.824L30.892 12h-1.456zm4.88.096c-.725 0-1.349-.128-1.872-.384a2.83 2.83 0 01-1.184-1.136c-.277-.501-.416-1.104-.416-1.808 0-.79.102-1.51.304-2.16a4.771 4.771 0 01.896-1.696 4.22 4.22 0 011.44-1.088c.555-.256 1.184-.384 1.889-.384.725 0 1.365.144 1.92.432a3.16 3.16 0 011.328 1.264c.33.544.495 1.195.495 1.952 0 .725-.122 1.392-.367 2a4.623 4.623 0 01-1.009 1.584c-.426.448-.933.8-1.52 1.056a4.886 4.886 0 01-1.904.368zm-.064-1.344c.64 0 1.206-.155 1.697-.464.5-.31.895-.73 1.184-1.264.287-.544.431-1.163.431-1.856 0-.747-.218-1.328-.656-1.744-.437-.427-1.06-.64-1.872-.64-.629 0-1.2.155-1.712.464-.5.299-.895.72-1.183 1.264-.278.533-.416 1.152-.416 1.856 0 .736.218 1.317.655 1.744.438.427 1.062.64 1.872.64zm11.364-5.6l.256-1.264h7.152l-.256 1.264h-7.152zm-.752 3.776l.256-1.264h7.152l-.256 1.264h-7.152zM58.249 12L60.617.128h1.536l-1.136 5.616-.56 1.936-.24 1.824L59.705 12h-1.456zm4.88.096c-.725 0-1.35-.128-1.872-.384a2.83 2.83 0 01-1.184-1.136c-.277-.501-.416-1.104-.416-1.808 0-.79.101-1.51.304-2.16a4.771 4.771 0 01.896-1.696 4.22 4.22 0 011.44-1.088c.555-.256 1.184-.384 1.888-.384.725 0 1.365.144 1.92.432a3.16 3.16 0 011.328 1.264c.33.544.496 1.195.496 1.952 0 .725-.123 1.392-.368 2a4.623 4.623 0 01-1.008 1.584c-.427.448-.933.8-1.52 1.056a4.886 4.886 0 01-1.904.368zm-.064-1.344c.64 0 1.205-.155 1.696-.464.501-.31.896-.73 1.184-1.264.288-.544.432-1.163.432-1.856 0-.747-.219-1.328-.656-1.744-.437-.427-1.061-.64-1.872-.64-.63 0-1.2.155-1.712.464-.501.299-.896.72-1.184 1.264-.277.533-.416 1.152-.416 1.856 0 .736.219 1.317.656 1.744.437.427 1.061.64 1.872.64zm11.507-2.288l5.584-5.072.8.944-5.6 5.072-.784-.944zm.512-4.192l.928-.88 4.416 5.136-.928.88-4.416-5.136zm15.706 7.824c-.715 0-1.355-.144-1.92-.432a3.407 3.407 0 01-1.345-1.264c-.32-.544-.48-1.2-.48-1.968 0-.725.118-1.392.352-2a4.961 4.961 0 011.008-1.584 4.61 4.61 0 011.537-1.04 4.885 4.885 0 011.904-.368c.736 0 1.36.128 1.871.384.513.256.907.635 1.184 1.136.278.49.416 1.093.416 1.808 0 1.045-.18 1.973-.543 2.784-.363.8-.886 1.424-1.569 1.872-.671.448-1.477.672-2.415.672zm.335-1.344c.64 0 1.211-.155 1.713-.464.5-.31.89-.73 1.168-1.264.287-.544.431-1.163.431-1.856 0-.747-.218-1.328-.656-1.744-.437-.427-1.06-.64-1.872-.64a3.17 3.17 0 00-1.696.464c-.5.299-.895.72-1.183 1.264-.288.533-.433 1.152-.433 1.856 0 .736.22 1.317.657 1.744.437.427 1.06.64 1.871.64zM93.573 12l.449-2.192.511-1.968.209-2.016.447-2.304h1.537L95.045 12h-1.473zm9.668-6.848l.256-1.264h7.152l-.256 1.264h-7.152zm-.752 3.776l.256-1.264h7.152l-.256 1.264h-7.152zm17.113 3.168c-.715 0-1.355-.144-1.92-.432a3.41 3.41 0 01-1.344-1.264c-.32-.544-.48-1.2-.48-1.968 0-.725.117-1.392.352-2a4.951 4.951 0 011.008-1.584 4.6 4.6 0 011.536-1.04 4.885 4.885 0 011.904-.368c.736 0 1.36.128 1.872.384s.907.635 1.184 1.136c.277.49.416 1.093.416 1.808 0 1.045-.181 1.973-.544 2.784-.363.8-.885 1.424-1.568 1.872-.672.448-1.477.672-2.416.672zm.336-1.344c.64 0 1.211-.155 1.712-.464.501-.31.891-.73 1.168-1.264.288-.544.432-1.163.432-1.856 0-.747-.219-1.328-.656-1.744-.437-.427-1.061-.64-1.872-.64-.629 0-1.195.155-1.696.464-.501.299-.896.72-1.184 1.264-.288.533-.432 1.152-.432 1.856 0 .736.219 1.317.656 1.744.437.427 1.061.64 1.872.64zM122.386 12l.448-2.192.512-1.968.208-2.016.448-2.304h1.536l-1.68 8.48h-1.472zm4.394 0L129.148.128h1.536l-1.136 5.616-.56 1.936-.24 1.824-.512 2.496h-1.456zm4.88.096c-.725 0-1.349-.128-1.872-.384a2.834 2.834 0 01-1.184-1.136c-.277-.501-.416-1.104-.416-1.808 0-.79.102-1.51.304-2.16a4.787 4.787 0 01.896-1.696c.406-.47.886-.832 1.44-1.088.555-.256 1.184-.384 1.888-.384.726 0 1.366.144 1.92.432a3.16 3.16 0 011.328 1.264c.331.544.496 1.195.496 1.952 0 .725-.122 1.392-.368 2a4.602 4.602 0 01-1.008 1.584c-.426.448-.933.8-1.52 1.056a4.882 4.882 0 01-1.904.368zm-.064-1.344c.64 0 1.206-.155 1.696-.464a3.29 3.29 0 001.184-1.264c.288-.544.432-1.163.432-1.856 0-.747-.218-1.328-.656-1.744-.437-.427-1.061-.64-1.872-.64-.629 0-1.2.155-1.712.464-.501.299-.896.72-1.184 1.264-.277.533-.416 1.152-.416 1.856 0 .736.219 1.317.656 1.744.438.427 1.062.64 1.872.64z" fill="#815656"/></svg>