<svg width="80" height="13" fill="none" xmlns="http://www.w3.org/2000/svg"><path d="M4.352 12.096c-.715 0-1.355-.144-1.92-.432A3.406 3.406 0 011.088 10.4c-.32-.544-.48-1.2-.48-1.968 0-.725.117-1.392.352-2a4.962 4.962 0 011.008-1.584c.437-.448.95-.795 1.536-1.04a4.885 4.885 0 011.904-.368c.736 0 1.36.128 1.872.384s.907.635 1.184 1.136c.277.49.416 1.093.416 1.808 0 1.045-.181 1.973-.544 2.784-.363.8-.885 1.424-1.568 1.872-.672.448-1.477.672-2.416.672zm.336-1.344c.64 0 1.21-.155 1.712-.464.501-.31.89-.73 1.168-1.264C7.856 8.48 8 7.861 8 7.168c0-.747-.219-1.328-.656-1.744-.437-.427-1.061-.64-1.872-.64-.63 0-1.195.155-1.696.464-.501.299-.896.72-1.184 1.264-.288.533-.432 1.152-.432 1.856 0 .736.219 1.317.656 1.744.437.427 1.061.64 1.872.64zM7.136 12l.448-2.192.512-1.968.208-2.016.448-2.304h1.536L8.608 12H7.136zm7.066.096c-.714 0-1.392-.09-2.032-.272-.63-.192-1.114-.427-1.456-.704l.688-1.216c.33.256.758.464 1.28.624a5.76 5.76 0 001.664.24c.736 0 1.29-.112 1.664-.336.374-.224.56-.528.56-.912a.686.686 0 00-.336-.624c-.224-.15-.517-.261-.88-.336-.352-.085-.73-.165-1.136-.24a6.14 6.14 0 01-1.136-.352 2.319 2.319 0 01-.88-.64c-.224-.288-.336-.667-.336-1.136 0-.565.16-1.05.48-1.456.32-.416.768-.736 1.344-.96.576-.224 1.248-.336 2.016-.336.555 0 1.099.07 1.632.208.544.128.987.315 1.328.56l-.608 1.216a3.277 3.277 0 00-1.184-.512 5.52 5.52 0 00-1.312-.16c-.714 0-1.253.123-1.616.368-.362.235-.544.533-.544.896 0 .277.112.496.336.656.224.15.512.267.864.352.363.085.742.17 1.136.256a5.41 5.41 0 011.136.336c.363.139.656.347.88.624.224.267.336.635.336 1.104 0 .587-.165 1.088-.496 1.504-.32.405-.773.715-1.36.928-.586.213-1.264.32-2.032.32zM25.731 12l-1.616-8.48h1.392l1.424 7.68h-.72l4.384-7.68h1.312l1.456 7.68h-.72l4.336-7.68h1.456L33.683 12h-1.504l-1.424-7.008h.464L27.203 12H25.73zm16.347.096c-.832 0-1.552-.15-2.16-.448a3.417 3.417 0 01-1.408-1.28c-.33-.555-.496-1.205-.496-1.952 0-.96.208-1.813.624-2.56a4.637 4.637 0 011.696-1.76c.726-.437 1.547-.656 2.464-.656.768 0 1.435.15 2 .448a3.088 3.088 0 011.312 1.248c.32.544.48 1.2.48 1.968 0 .192-.01.39-.032.592a7.413 7.413 0 01-.08.544h-7.344l.192-1.12h6.416l-.624.384c.096-.597.054-1.099-.128-1.504a1.911 1.911 0 00-.864-.944c-.384-.224-.848-.336-1.392-.336-.64 0-1.205.155-1.696.464-.48.299-.853.72-1.12 1.264-.266.533-.4 1.163-.4 1.888 0 .768.219 1.365.656 1.792.448.416 1.126.624 2.032.624a4.22 4.22 0 001.488-.256 3.293 3.293 0 001.136-.72l.656 1.104c-.405.395-.912.699-1.52.912a5.93 5.93 0 01-1.888.304zM47.811 12L50.18.128h1.536L49.347 12h-1.535zm4.47 0L54.647.128h1.536L53.816 12H52.28zm12.493.096c-.715 0-1.355-.144-1.92-.432A3.405 3.405 0 0161.51 10.4c-.32-.544-.48-1.2-.48-1.968 0-.725.117-1.392.352-2a4.961 4.961 0 011.008-1.584c.437-.448.95-.795 1.536-1.04a4.885 4.885 0 011.904-.368c.736 0 1.36.128 1.872.384s.907.635 1.184 1.136c.277.49.416 1.093.416 1.808 0 1.045-.181 1.973-.544 2.784-.363.8-.885 1.424-1.568 1.872-.672.448-1.477.672-2.416.672zm.336-1.344c.64 0 1.21-.155 1.712-.464.501-.31.89-.73 1.168-1.264.288-.544.432-1.163.432-1.856 0-.747-.219-1.328-.656-1.744-.438-.427-1.062-.64-1.872-.64-.63 0-1.195.155-1.696.464-.501.299-.896.72-1.184 1.264-.288.533-.432 1.152-.432 1.856 0 .736.218 1.317.656 1.744.437.427 1.061.64 1.872.64zM67.558 12l.448-2.192.512-1.968.208-2.016.448-2.304h1.536L69.03 12h-1.472zm7.066.096c-.715 0-1.392-.09-2.032-.272-.63-.192-1.114-.427-1.456-.704l.688-1.216c.33.256.758.464 1.28.624a5.76 5.76 0 001.664.24c.736 0 1.29-.112 1.664-.336.373-.224.56-.528.56-.912a.686.686 0 00-.336-.624c-.224-.15-.517-.261-.88-.336-.352-.085-.73-.165-1.136-.24a6.142 6.142 0 01-1.136-.352 2.32 2.32 0 01-.88-.64c-.224-.288-.336-.667-.336-1.136 0-.565.16-1.05.48-1.456.32-.416.768-.736 1.344-.96.576-.224 1.248-.336 2.016-.336.555 0 1.099.07 1.632.208.544.128.987.315 1.328.56l-.608 1.216a3.276 3.276 0 00-1.184-.512 5.518 5.518 0 00-1.312-.16c-.715 0-1.253.123-1.616.368-.362.235-.544.533-.544.896 0 .277.112.496.336.656.224.15.512.267.864.352.363.085.742.17 1.136.256.406.075.784.187 1.136.336.363.139.656.347.88.624.224.267.336.635.336 1.104 0 .587-.165 1.088-.496 1.504-.32.405-.773.715-1.36.928-.587.213-1.264.32-2.032.32z" fill="#815656"/></svg>