<svg width="149" height="51" fill="none" xmlns="http://www.w3.org/2000/svg"><path d="M4.352 16.096c-.715 0-1.355-.144-1.92-.432A3.406 3.406 0 011.088 14.4c-.32-.544-.48-1.2-.48-1.968 0-.725.117-1.392.352-2a4.962 4.962 0 011.008-1.584c.437-.448.95-.795 1.536-1.04a4.885 4.885 0 011.904-.368c.736 0 1.36.128 1.872.384s.907.635 1.184 1.136c.277.49.416 1.093.416 1.808 0 1.045-.181 1.973-.544 2.784-.363.8-.885 1.424-1.568 1.872-.672.448-1.477.672-2.416.672zm.336-1.344c.64 0 1.21-.155 1.712-.464.501-.31.89-.73 1.168-1.264.288-.544.432-1.163.432-1.856 0-.747-.219-1.328-.656-1.744-.437-.427-1.061-.64-1.872-.64-.63 0-1.195.155-1.696.464-.501.299-.896.72-1.184 1.264-.288.533-.432 1.152-.432 1.856 0 .736.219 1.317.656 1.744.437.427 1.061.64 1.872.64zM7.136 16l.448-2.192.512-1.968.208-2.016.448-2.304h1.536L8.608 16H7.136zm9.811-3.536l5.584-5.072.8.944-5.6 5.072-.784-.944zm.512-4.192l.928-.88 4.416 5.136-.928.88-4.416-5.136zM29.436 16l2.369-11.872h1.535l-1.136 5.616-.56 1.936-.24 1.824L30.892 16h-1.456zm4.88.096c-.725 0-1.349-.128-1.872-.384a2.83 2.83 0 01-1.184-1.136c-.277-.501-.416-1.104-.416-1.808 0-.79.102-1.51.304-2.16a4.771 4.771 0 01.896-1.696 4.22 4.22 0 011.44-1.088c.555-.256 1.184-.384 1.889-.384.725 0 1.365.144 1.92.432a3.16 3.16 0 011.328 1.264c.33.544.495 1.195.495 1.952 0 .725-.122 1.392-.367 2a4.623 4.623 0 01-1.009 1.584c-.426.448-.933.8-1.52 1.056a4.886 4.886 0 01-1.904.368zm-.064-1.344c.64 0 1.206-.155 1.697-.464.5-.31.895-.73 1.184-1.264.287-.544.431-1.163.431-1.856 0-.747-.218-1.328-.656-1.744-.437-.427-1.06-.64-1.872-.64-.629 0-1.2.155-1.712.464-.5.299-.895.72-1.183 1.264-.278.533-.416 1.152-.416 1.856 0 .736.218 1.317.655 1.744.438.427 1.062.64 1.872.64zm11.364-5.6l.256-1.264h7.152l-.256 1.264h-7.152zm-.752 3.776l.256-1.264h7.152l-.256 1.264h-7.152zm17.113 3.168c-.715 0-1.355-.144-1.92-.432a3.407 3.407 0 01-1.344-1.264c-.32-.544-.48-1.2-.48-1.968 0-.725.117-1.392.352-2a4.961 4.961 0 011.008-1.584c.437-.448.95-.795 1.536-1.04a4.885 4.885 0 011.904-.368c.736 0 1.36.128 1.872.384s.907.635 1.184 1.136c.277.49.416 1.093.416 1.808 0 1.045-.181 1.973-.544 2.784-.363.8-.885 1.424-1.568 1.872-.672.448-1.477.672-2.416.672zm.336-1.344c.64 0 1.21-.155 1.712-.464.501-.31.89-.73 1.168-1.264.288-.544.432-1.163.432-1.856 0-.747-.219-1.328-.656-1.744-.437-.427-1.061-.64-1.872-.64-.63 0-1.195.155-1.696.464-.501.299-.896.72-1.184 1.264-.288.533-.432 1.152-.432 1.856 0 .736.219 1.317.656 1.744.437.427 1.061.64 1.872.64zM64.761 16l.448-2.192.512-1.968.208-2.016.448-2.304h1.536L66.233 16h-1.472zm7.338-2.096l1.376-7.008h1.36l-1.392 7.008H72.1zm-2.336-2.864l.24-1.264h7.168l-.24 1.264h-7.168zm9.107 5.056c-.288 0-.533-.096-.736-.288a1.031 1.031 0 01-.288-.736c0-.352.112-.635.336-.848.224-.213.49-.32.8-.32.288 0 .528.096.72.288.192.192.288.443.288.752 0 .224-.053.427-.16.608-.107.17-.245.304-.416.4-.16.096-.341.144-.544.144zm3.625 0c-.288 0-.533-.096-.736-.288a1.031 1.031 0 01-.288-.736c0-.352.112-.635.336-.848.224-.213.49-.32.8-.32.288 0 .528.096.72.288.192.192.288.443.288.752 0 .224-.053.427-.16.608-.107.17-.245.304-.416.4-.16.096-.341.144-.544.144zm3.625 0c-.288 0-.533-.096-.736-.288a1.031 1.031 0 01-.288-.736c0-.352.112-.635.336-.848.224-.213.49-.32.8-.32.288 0 .528.096.72.288.192.192.288.443.288.752 0 .224-.053.427-.16.608-.107.17-.245.304-.416.4-.16.096-.341.144-.544.144zm5.964-2.192l1.376-7.008h1.36l-1.392 7.008h-1.344zm-2.336-2.864l.24-1.264h7.168l-.24 1.264h-7.168zm12.604 5.056c-.715 0-1.355-.144-1.92-.432a3.407 3.407 0 01-1.344-1.264c-.32-.544-.48-1.2-.48-1.968 0-.725.117-1.392.352-2a4.961 4.961 0 011.008-1.584 4.6 4.6 0 011.536-1.04 4.885 4.885 0 011.904-.368c.736 0 1.36.128 1.872.384s.907.635 1.184 1.136c.277.49.416 1.093.416 1.808 0 1.045-.181 1.973-.544 2.784-.363.8-.885 1.424-1.568 1.872-.672.448-1.477.672-2.416.672zm.336-1.344c.64 0 1.211-.155 1.712-.464.501-.31.891-.73 1.168-1.264.288-.544.432-1.163.432-1.856 0-.747-.219-1.328-.656-1.744-.437-.427-1.061-.64-1.872-.64-.629 0-1.195.155-1.696.464-.501.299-.896.72-1.184 1.264-.288.533-.432 1.152-.432 1.856 0 .736.219 1.317.656 1.744.437.427 1.061.64 1.872.64zM105.136 16l.448-2.192.512-1.968.208-2.016.448-2.304h1.536l-1.68 8.48h-1.472zm9.667-6.848l.256-1.264h7.152l-.256 1.264h-7.152zm-.752 3.776l.256-1.264h7.152l-.256 1.264h-7.152zm17.114 3.168c-.715 0-1.355-.144-1.92-.432a3.397 3.397 0 01-1.344-1.264c-.32-.544-.48-1.2-.48-1.968 0-.725.117-1.392.352-2a4.951 4.951 0 011.008-1.584 4.6 4.6 0 011.536-1.04 4.882 4.882 0 011.904-.368c.736 0 1.36.128 1.872.384a2.71 2.71 0 011.184 1.136c.277.49.416 1.093.416 1.808 0 1.045-.182 1.973-.544 2.784-.363.8-.886 1.424-1.568 1.872-.672.448-1.478.672-2.416.672zm.336-1.344c.64 0 1.21-.155 1.712-.464.501-.31.89-.73 1.168-1.264.288-.544.431-1.163.431-1.856 0-.747-.218-1.328-.655-1.744-.438-.427-1.062-.64-1.872-.64-.63 0-1.195.155-1.696.464a3.15 3.15 0 00-1.184 1.264c-.288.533-.432 1.152-.432 1.856 0 .736.218 1.317.656 1.744.437.427 1.061.64 1.872.64zM133.949 16l.448-2.192.512-1.968.208-2.016.448-2.304h1.536l-1.68 8.48h-1.472zm4.394 0l2.368-11.872h1.536l-1.136 5.616-.56 1.936-.24 1.824-.512 2.496h-1.456zm4.88.096c-.726 0-1.35-.128-1.872-.384a2.828 2.828 0 01-1.184-1.136c-.278-.501-.416-1.104-.416-1.808 0-.79.101-1.51.304-2.16a4.755 4.755 0 01.896-1.696c.405-.47.885-.832 1.44-1.088.554-.256 1.184-.384 1.888-.384.725 0 1.365.144 1.92.432.565.288 1.008.71 1.328 1.264.33.544.496 1.195.496 1.952 0 .725-.123 1.392-.368 2a4.632 4.632 0 01-1.008 1.584c-.427.448-.934.8-1.52 1.056a4.89 4.89 0 01-1.904.368zm-.064-1.344c.64 0 1.205-.155 1.696-.464.501-.31.896-.73 1.184-1.264.288-.544.432-1.163.432-1.856 0-.747-.219-1.328-.656-1.744-.438-.427-1.062-.64-1.872-.64-.63 0-1.2.155-1.712.464a3.15 3.15 0 00-1.184 1.264c-.278.533-.416 1.152-.416 1.856 0 .736.218 1.317.656 1.744.437.427 1.061.64 1.872.64zM80.39 45l1.48-7.42h.96l-.71 3.51-.35 1.21-.15 1.14L81.3 45h-.91zm3.05.06c-.453 0-.843-.08-1.17-.24a1.768 1.768 0 01-.74-.71c-.173-.313-.26-.69-.26-1.13 0-.493.063-.943.19-1.35.127-.413.313-.767.56-1.06.253-.293.553-.52.9-.68.347-.16.74-.24 1.18-.24.453 0 .853.09 1.2.27.353.18.63.443.83.79.207.34.31.747.31 1.22 0 .453-.077.87-.23 1.25a2.89 2.89 0 01-.63.99c-.267.28-.583.5-.95.66a3.06 3.06 0 01-1.19.23zm-.04-.84c.4 0 .753-.097 1.06-.29a2.06 2.06 0 00.74-.79c.18-.34.27-.727.27-1.16 0-.467-.137-.83-.41-1.09-.273-.267-.663-.4-1.17-.4-.393 0-.75.097-1.07.29a1.97 1.97 0 00-.74.79 2.48 2.48 0 00-.26 1.16c0 .46.137.823.41 1.09.273.267.663.4 1.17.4zM59.106 22.805v-1.632h2.193v1.479c0 1.36.357 2.346 1.071 2.958.714.646 1.734.969 3.06.969H79.2c.884 0 1.581.085 2.091.255.544.204.952.51 1.224.918.306.442.527.969.663 1.581h-.408c.17-.612.391-1.139.663-1.581.272-.408.663-.714 1.173-.918.544-.17 1.258-.255 2.142-.255h13.77c1.326 0 2.346-.323 3.06-.969.714-.612 1.071-1.598 1.071-2.958v-1.479h2.193v1.632c0 2.074-.51 3.638-1.53 4.692-.986 1.088-2.516 1.632-4.59 1.632H86.697c-.918 0-1.581.187-1.989.561-.408.408-.612.969-.612 1.683v1.785h-2.193v-1.785c0-.714-.221-1.275-.663-1.683-.408-.374-1.071-.561-1.989-.561H65.226c-2.04 0-3.57-.544-4.59-1.632-1.02-1.054-1.53-2.618-1.53-4.692z" fill="#815656"/></svg>